<mxfile host="app.diagrams.net" modified="2023-12-11T05:02:11.546Z" agent="Mozilla/5.0 (Windows NT 10.0; Win64; x64) AppleWebKit/537.36 (KHTML, like Gecko) Chrome/120.0.0.0 Safari/537.36" version="22.1.7" etag="x5TI4Ij66KUbVw-k4C5r" type="github">
  <diagram name="Halaman-1" id="Fd3C7OAZHPI9BMx9mDI5">
    <mxGraphModel>
      <root>
        <mxCell id="0" />
        <mxCell id="1" parent="0" />
      </root>
    </mxGraphModel>
  </diagram>
</mxfile>
